# xmcd
#
# Track frame offsets:
#	150
#	10865
#	21560
#	30620
#	41460
#	51225
#	60955
#	72692
#	86067
#	95827
#	104430
#	113750
#	124725
#	136252
#	146827
#	156360
#	167942
#	178662
#	188935
#	200167
#	209302
#	220025
#	229922
#	241375
#	252012
#	264760
#	274070
#	285785
#	295305
#	305505
#	314730
#	323542
#
# Disc length: 4483 seconds
#
# Revision: 1
# Processed by: cddbd v1.5.2PL0 Copyright (c) Steve Scherf et al.
# Submitted via: audiograbber 1.83.01
#
DISCID=e4118120
DTITLE=Various Artist - The 'D' Singles Volume 1 - Disc 1
DYEAR=1900
DGENRE=Country
TTITLE0=Tommy Wood (Eddie Noack) - Can't Play Hookey
TTITLE1=Tommy Wood (Eddie Noack) - My Steady Dream
TTITLE2=Al Travis - Mon And Dad Love You Too
TTITLE3=Al Travis - He Brought Us Together
TTITLE4=Wortham Watts - Cotton Picker
TTITLE5=Worthan Watts - Lonesome
TTITLE6=Utah Carl - Never Meant For Me
TTITLE7=Utah Carl - Treasured Memories
TTITLE8=Jimmie and Johnny - I Can't Find The Doorknob
TTITLE9=Jimme and Johnny - Keep Telling Me
TTITLE10=Tony Douglas - Baby, When The Sun Goes Down
TTITLE11=Tony Douglas - World In My Arms
TTITLE12=James O'Gwynn - Talk To Me Lonesome Heart
TTITLE13=James O'Gwynn - Changeable
TTITLE14=Margie Singleton - I Want To Be Where You're Gonna Be
TTITLE15=Margie Singleton - Shattered Kingdom
TTITLE16=Big Bopper - Chantilly Lace
TTITLE17=Big Bopper - Purple People Easter Meets The Witchdoctor
TTITLE18=Sonny Hall and The Echoes - Gonna Pack Up My Troubles
TTITLE19=Sonny Hall and The Echoes - My Big Fat Baby
TTITLE20=Les Cole (Country Johnny Mathis) and The Echoes - Bee Boppin' Daddy
TTITLE21=Les Cole (Country Johhny Mathis) and The Echoes: Rock-A - My Baby
TTITLE22=Johnny Dollar - Walking Away
TTITLE23=Johnny Dollar - No Memories
TTITLE24=Ray Jackson:  - Texas-Alaska
TTITLE25=Ray Jackson - Alaska
TTITLE26=The Four B's - I Played The Fool
TTITLE27=The Four B's - Love Eternal
TTITLE28=Bobby Moncrief - Don't Hold Me To A Vow
TTITLE29=Bobby Moncrief - Here Is My Heart
TTITLE30=Sonny Sheets with Floyd Terry - The Pirates And The Frantics - Wheels
TTITLE31=Sonny Sheets - Dreaming In Vain
EXTD=
EXTT0=
EXTT1=
EXTT2=
EXTT3=
EXTT4=
EXTT5=
EXTT6=
EXTT7=
EXTT8=
EXTT9=
EXTT10=
EXTT11=
EXTT12=
EXTT13=
EXTT14=
EXTT15=
EXTT16=
EXTT17=
EXTT18=
EXTT19=
EXTT20=
EXTT21=
EXTT22=
EXTT23=
EXTT24=
EXTT25=
EXTT26=
EXTT27=
EXTT28=
EXTT29=
EXTT30=
EXTT31=
PLAYORDER=
